<svg width="25" height="25" viewBox="0 0 25 25" fill="none" xmlns="http://www.w3.org/2000/svg">
<path fill-rule="evenodd" clip-rule="evenodd" d="M9.98804 1.38068C12.3859 0.838913 14.8947 1.08678 17.1402 2.08732C17.1906 2.10979 17.2498 2.08712 17.2722 2.03667C17.2947 1.98623 17.272 1.92711 17.2216 1.90463C14.9367 0.886541 12.3839 0.634326 9.94397 1.1856C7.50402 1.73687 5.30764 3.0621 3.68239 4.96363C2.05715 6.86517 1.09012 9.24112 0.925536 11.7372C0.760948 14.2332 1.40762 16.7155 2.7691 18.814C4.13059 20.9125 6.13394 22.5147 8.48037 23.3815C10.8268 24.2484 13.3906 24.3336 15.7894 23.6243C18.1882 22.9151 20.2935 21.4494 21.7912 19.4459C23.289 17.4424 24.099 15.0085 24.1004 12.507V12.507V11.449C24.1004 11.3937 24.0556 11.349 24.0004 11.349C23.9452 11.349 23.9004 11.3937 23.9004 11.449V12.5069C23.899 14.9652 23.103 17.3572 21.631 19.3262C20.1591 21.2951 18.0901 22.7355 15.7327 23.4326C13.3753 24.1296 10.8557 24.0459 8.54968 23.1939C6.24371 22.342 4.2749 20.7675 2.93689 18.7052C1.59887 16.6429 0.963353 14.2033 1.1251 11.7503C1.28685 9.29732 2.23721 6.96233 3.83443 5.09358C5.43165 3.22483 7.59016 1.92245 9.98804 1.38068ZM24.0725 3.0697C24.1108 3.02989 24.1095 2.96659 24.0697 2.92831C24.0299 2.89003 23.9666 2.89127 23.9283 2.93108L12.4619 14.8562L9.07244 11.3346C9.03414 11.2948 8.97084 11.2936 8.93104 11.3319C8.89125 11.3702 8.89004 11.4335 8.92834 11.4733L12.3899 15.0697C12.4087 15.0893 12.4348 15.1004 12.462 15.1004C12.4891 15.1004 12.5152 15.0893 12.534 15.0697L24.0725 3.0697Z" fill="black"/>
</svg>
